<?xml version="1.0" encoding="UTF-8" standalone="no"?>
<svg
   xmlns:dc="http://purl.org/dc/elements/1.1/"
   xmlns:cc="http://creativecommons.org/ns#"
   xmlns:rdf="http://www.w3.org/1999/02/22-rdf-syntax-ns#"
   xmlns:svg="http://www.w3.org/2000/svg"
   xmlns="http://www.w3.org/2000/svg"
   xmlns:sodipodi="http://sodipodi.sourceforge.net/DTD/sodipodi-0.dtd"
   xmlns:inkscape="http://www.inkscape.org/namespaces/inkscape"
   width="68.495438"
   height="12.839192"
   viewBox="0 0 18.12275 3.3970364"
   version="1.1"
   id="svg8"
   inkscape:version="1.0rc1 (09960d6, 2020-04-09)"
   sodipodi:docname="logo.svg">
  <defs
     id="defs2">
    <rect
       x="10.583333"
       y="76.351189"
       width="189.74405"
       height="56.69643"
       id="rect12" />
  </defs>
  <sodipodi:namedview
     fit-margin-bottom="0"
     fit-margin-right="0"
     fit-margin-left="0"
     fit-margin-top="0"
     units="px"
     inkscape:showpageshadow="false"
     inkscape:pagecheckerboard="true"
     id="base"
     pagecolor="#ffffff"
     bordercolor="#666666"
     borderopacity="1.0"
     inkscape:pageopacity="0.0"
     inkscape:pageshadow="2"
     inkscape:zoom="3.52"
     inkscape:cx="98.834108"
     inkscape:cy="16.814591"
     inkscape:document-units="px"
     inkscape:current-layer="text18"
     inkscape:document-rotation="0"
     showgrid="false"
     inkscape:window-width="1920"
     inkscape:window-height="1155"
     inkscape:window-x="0"
     inkscape:window-y="23"
     inkscape:window-maximized="1" />
  <metadata
     id="metadata5">
    <rdf:RDF>
      <cc:Work
         rdf:about="">
        <dc:format>image/svg+xml</dc:format>
        <dc:type
           rdf:resource="http://purl.org/dc/dcmitype/StillImage" />
        <dc:title></dc:title>
      </cc:Work>
    </rdf:RDF>
  </metadata>
  <g
     transform="translate(-21.464491,-110.79655)"
     inkscape:label="Layer 1"
     inkscape:groupmode="layer"
     id="layer1">
    <text
       xml:space="preserve"
       id="text10"
       style="font-size:35.27779999999999916px;line-height:1.25;font-family:sans-serif;white-space:pre;shape-inside:url(#rect12);" />
    <g
       style="font-style:normal;font-variant:normal;font-weight:normal;font-stretch:normal;font-size:4.58611px;line-height:1.25;font-family:Righteous;-inkscape-font-specification:'Righteous, Normal';font-variant-ligatures:normal;font-variant-caps:normal;font-variant-numeric:normal;font-variant-east-asian:normal;fill:#ff00ff;stroke-width:0.264583"
       id="text18"
       aria-label="Factable">
      <path
         id="path948"
         style="font-style:normal;font-variant:normal;font-weight:normal;font-stretch:normal;font-size:4.58611px;font-family:Righteous;-inkscape-font-specification:'Righteous, Normal';font-variant-ligatures:normal;font-variant-caps:normal;font-variant-numeric:normal;font-variant-east-asian:normal;fill:#ff00ff;stroke-width:0.264583"
         d="m 22.107173,114.1488 h -0.642682 v -3.21117 h 2.248268 v 0.64268 h -1.605586 v 0.64269 h 0.962904 v 0.64268 h -0.962904 z" />
      <path
         id="path950"
         style="font-style:normal;font-variant:normal;font-weight:normal;font-stretch:normal;font-size:4.58611px;font-family:Righteous;-inkscape-font-specification:'Righteous, Normal';font-variant-ligatures:normal;font-variant-caps:normal;font-variant-numeric:normal;font-variant-east-asian:normal;fill:#ff00ff;stroke-width:0.264583"
         d="m 26.018131,114.1488 h -0.147795 l -0.237367,-0.32918 q -0.08733,0.0784 -0.185863,0.1478 -0.09629,0.0672 -0.203777,0.11868 -0.107487,0.0493 -0.221692,0.0784 -0.111965,0.0291 -0.22841,0.0291 -0.253042,0 -0.476973,-0.0851 -0.221692,-0.0851 -0.38964,-0.24633 -0.165709,-0.16347 -0.262,-0.3986 -0.09629,-0.23512 -0.09629,-0.53519 0,-0.27992 0.09629,-0.5128 0.09629,-0.23513 0.262,-0.40308 0.167948,-0.16795 0.38964,-0.25976 0.223931,-0.094 0.476973,-0.094 0.116445,0 0.23065,0.0291 0.114204,0.0291 0.221691,0.0806 0.107487,0.0515 0.203778,0.12092 0.09853,0.0694 0.183623,0.15003 l 0.237367,-0.28439 h 0.147795 z m -0.615811,-1.22042 q 0,-0.1254 -0.04926,-0.24185 -0.04703,-0.11868 -0.12988,-0.20825 -0.08285,-0.0918 -0.19482,-0.14556 -0.109726,-0.056 -0.235128,-0.056 -0.125401,0 -0.237367,0.0425 -0.109726,0.0425 -0.19258,0.1254 -0.08062,0.0829 -0.127641,0.20601 -0.04703,0.12093 -0.04703,0.27768 0,0.15675 0.04703,0.27991 0.04703,0.12093 0.127641,0.20378 0.08285,0.0828 0.19258,0.1254 0.111966,0.0426 0.237367,0.0426 0.125402,0 0.235128,-0.0537 0.111966,-0.056 0.19482,-0.14556 0.08285,-0.0918 0.12988,-0.20826 0.04926,-0.11868 0.04926,-0.24408 z" />
      <path
         id="path952"
         style="font-style:normal;font-variant:normal;font-weight:normal;font-stretch:normal;font-size:4.58611px;font-family:Righteous;-inkscape-font-specification:'Righteous, Normal';font-variant-ligatures:normal;font-variant-caps:normal;font-variant-numeric:normal;font-variant-east-asian:normal;fill:#ff00ff;stroke-width:0.264583"
         d="m 28.574305,112.22747 -0.447862,0.45011 q -0.03359,-0.0941 -0.09181,-0.16795 -0.05822,-0.0761 -0.132119,-0.12764 -0.07166,-0.0515 -0.156752,-0.0784 -0.08509,-0.0269 -0.174667,-0.0269 -0.125401,0 -0.237367,0.0515 -0.109726,0.0515 -0.19258,0.14556 -0.08062,0.0918 -0.127641,0.21945 -0.04703,0.12764 -0.04703,0.28215 0,0.12541 0.04703,0.23513 0.04703,0.10973 0.127641,0.19258 0.08285,0.0829 0.19258,0.12988 0.111966,0.047 0.237367,0.047 0.08957,0 0.172427,-0.0246 0.08285,-0.0246 0.154513,-0.0694 0.0739,-0.047 0.12988,-0.11197 0.05822,-0.0672 0.09405,-0.14779 l 0.447862,0.4501 q -0.08509,0.12092 -0.197059,0.21721 -0.109726,0.0963 -0.239606,0.16347 -0.127641,0.0672 -0.270957,0.10077 -0.141077,0.0358 -0.291111,0.0358 -0.253042,0 -0.476973,-0.094 -0.221692,-0.0963 -0.38964,-0.262 -0.165709,-0.16571 -0.262,-0.3874 -0.09629,-0.22169 -0.09629,-0.47474 0,-0.27543 0.09629,-0.51504 0.09629,-0.2396 0.262,-0.41651 0.167948,-0.17914 0.38964,-0.28215 0.223931,-0.10301 0.476973,-0.10301 0.150034,0 0.29335,0.0381 0.145555,0.0381 0.275436,0.11196 0.132119,0.0717 0.241845,0.17691 0.111966,0.10525 0.192581,0.24184 z" />
      <path
         id="path954"
         style="font-style:normal;font-variant:normal;font-weight:normal;font-stretch:normal;font-size:4.58611px;font-family:Righteous;-inkscape-font-specification:'Righteous, Normal';font-variant-ligatures:normal;font-variant-caps:normal;font-variant-numeric:normal;font-variant-east-asian:normal;fill:#ff00ff;stroke-width:0.264583"
         d="m 30.072405,114.1488 q -0.221692,0 -0.416512,-0.0828 -0.194821,-0.0851 -0.342615,-0.23065 -0.145555,-0.14779 -0.230649,-0.34261 -0.08286,-0.19482 -0.08286,-0.41652 v -0.7121 h -0.297828 v -0.60909 h 0.297828 v -0.95843 h 0.609093 v 0.95843 h 0.927075 v 0.60909 h -0.927075 v 0.7121 q 0,0.0963 0.03583,0.18139 0.03583,0.0829 0.09853,0.14555 0.0627,0.0627 0.147794,0.10077 0.08509,0.0358 0.181385,0.0358 h 0.463537 v 0.60909 z" />
      <path
         id="path956"
         style="font-style:normal;font-variant:normal;font-weight:normal;font-stretch:normal;font-size:4.58611px;font-family:Righteous;-inkscape-font-specification:'Righteous, Normal';font-variant-ligatures:normal;font-variant-caps:normal;font-variant-numeric:normal;font-variant-east-asian:normal;fill:#ff00ff;stroke-width:0.264583"
         d="m 33.198483,114.1488 h -0.147794 l -0.237367,-0.32918 q -0.08733,0.0784 -0.185863,0.1478 -0.09629,0.0672 -0.203777,0.11868 -0.107487,0.0493 -0.221692,0.0784 -0.111966,0.0291 -0.22841,0.0291 -0.253042,0 -0.476973,-0.0851 -0.221692,-0.0851 -0.389641,-0.24633 -0.165709,-0.16347 -0.261999,-0.3986 -0.09629,-0.23512 -0.09629,-0.53519 0,-0.27992 0.09629,-0.5128 0.09629,-0.23513 0.261999,-0.40308 0.167949,-0.16795 0.389641,-0.25976 0.223931,-0.094 0.476973,-0.094 0.116444,0 0.230649,0.0291 0.114205,0.0291 0.221692,0.0806 0.107487,0.0515 0.203777,0.12092 0.09853,0.0694 0.183624,0.15003 l 0.237367,-0.28439 h 0.147794 z m -0.61581,-1.22042 q 0,-0.1254 -0.04926,-0.24185 -0.04703,-0.11868 -0.12988,-0.20825 -0.08286,-0.0918 -0.19482,-0.14556 -0.109727,-0.056 -0.235128,-0.056 -0.125402,0 -0.237367,0.0425 -0.109726,0.0425 -0.192581,0.1254 -0.08061,0.0829 -0.127641,0.20601 -0.04703,0.12093 -0.04703,0.27768 0,0.15675 0.04703,0.27991 0.04703,0.12093 0.127641,0.20378 0.08286,0.0828 0.192581,0.1254 0.111965,0.0426 0.237367,0.0426 0.125401,0 0.235128,-0.0537 0.111965,-0.056 0.19482,-0.14556 0.08285,-0.0918 0.12988,-0.20826 0.04926,-0.11868 0.04926,-0.24408 z" />
      <path
         id="path958"
         style="font-style:normal;font-variant:normal;font-weight:normal;font-stretch:normal;font-size:4.58611px;font-family:Righteous;-inkscape-font-specification:'Righteous, Normal';font-variant-ligatures:normal;font-variant-caps:normal;font-variant-numeric:normal;font-variant-east-asian:normal;fill:#ff00ff;stroke-width:0.264583"
         d="m 36.062563,112.92838 q 0,0.28215 -0.09629,0.51504 -0.09629,0.23289 -0.261999,0.40084 -0.165709,0.16571 -0.38964,0.25752 -0.221692,0.0918 -0.476974,0.0918 -0.253042,0 -0.476973,-0.094 -0.221692,-0.0941 -0.38964,-0.262 -0.165709,-0.16795 -0.262,-0.3986 -0.09629,-0.23289 -0.09629,-0.51056 v -2.13183 h 0.613571 v 1.11966 q 0.04927,-0.0627 0.118684,-0.11197 0.07166,-0.0493 0.152273,-0.0806 0.08286,-0.0314 0.170188,-0.047 0.08733,-0.0179 0.170187,-0.0179 0.255282,0 0.476974,0.0963 0.223931,0.094 0.38964,0.26424 0.165709,0.17019 0.261999,0.40307 0.09629,0.23065 0.09629,0.50609 z m -0.615811,0 q 0,-0.13884 -0.04926,-0.25752 -0.04702,-0.12092 -0.12988,-0.20826 -0.08285,-0.0873 -0.19482,-0.1366 -0.109726,-0.0493 -0.235128,-0.0493 -0.125401,0 -0.237367,0.056 -0.109726,0.0538 -0.19258,0.14556 -0.08285,0.0896 -0.12988,0.20825 -0.04703,0.11645 -0.04703,0.24185 0,0.13884 0.04703,0.25752 0.04703,0.11868 0.12988,0.20602 0.08285,0.0873 0.19258,0.13883 0.111966,0.0493 0.237367,0.0493 0.125402,0 0.235128,-0.0493 0.111966,-0.0515 0.19482,-0.13883 0.08286,-0.0873 0.12988,-0.20602 0.04926,-0.11868 0.04926,-0.25752 z" />
      <path
         id="path960"
         style="font-style:normal;font-variant:normal;font-weight:normal;font-stretch:normal;font-size:4.58611px;font-family:Righteous;-inkscape-font-specification:'Righteous, Normal';font-variant-ligatures:normal;font-variant-caps:normal;font-variant-numeric:normal;font-variant-east-asian:normal;fill:#ff00ff;stroke-width:0.264583"
         d="m 37.018749,114.1488 h -0.615811 v -3.35225 h 0.615811 z" />
      <path
         id="path962"
         style="font-style:normal;font-variant:normal;font-weight:normal;font-stretch:normal;font-size:4.58611px;font-family:Righteous;-inkscape-font-specification:'Righteous, Normal';font-variant-ligatures:normal;font-variant-caps:normal;font-variant-numeric:normal;font-variant-east-asian:normal;fill:#ff00ff;stroke-width:0.264583"
         d="m 38.440713,113.5621 q 0.03583,0.0112 0.07166,0.0157 0.03583,0.002 0.07166,0.002 0.08957,0 0.172427,-0.0246 0.08285,-0.0246 0.154512,-0.0694 0.0739,-0.047 0.12988,-0.11197 0.05822,-0.0672 0.09405,-0.14779 l 0.447863,0.4501 q -0.08509,0.12092 -0.19706,0.21721 -0.109726,0.0963 -0.239606,0.16347 -0.127641,0.0672 -0.270957,0.10077 -0.141076,0.0358 -0.29111,0.0358 -0.253042,0 -0.476974,-0.094 -0.221691,-0.0941 -0.38964,-0.262 -0.165709,-0.16795 -0.261999,-0.3986 -0.09629,-0.23289 -0.09629,-0.51056 0,-0.28439 0.09629,-0.51952 0.09629,-0.23513 0.261999,-0.40084 0.167949,-0.16571 0.38964,-0.25752 0.223932,-0.0918 0.476974,-0.0918 0.150034,0 0.29335,0.0358 0.143315,0.0358 0.270956,0.10301 0.12988,0.0672 0.241846,0.16571 0.111965,0.0963 0.197059,0.21721 z m 0.313503,-1.26073 q -0.04255,-0.0157 -0.08509,-0.0202 -0.04031,-0.004 -0.08509,-0.004 -0.125402,0 -0.237367,0.047 -0.109727,0.0448 -0.192581,0.12988 -0.08061,0.0851 -0.127641,0.20602 -0.04702,0.11869 -0.04702,0.26872 0,0.0336 0.0022,0.0761 0.0045,0.0425 0.0112,0.0873 0.009,0.0426 0.02015,0.0829 0.0112,0.0403 0.02911,0.0717 z" />
    </g>
  </g>
</svg>
